<svg width="23" height="23" viewBox="0 0 23 23" fill="none" xmlns="http://www.w3.org/2000/svg">
<path d="M17.4746 1.83398C18.3056 1.83398 19.0468 2.67807 19.0468 3.81189C19.0468 4.94977 18.3056 5.7898 17.4746 5.7898C16.6435 5.7898 15.9023 4.94977 15.9023 3.81189C15.9023 2.67807 16.6435 1.83398 17.4746 1.83398ZM11.5044 1.83398C12.331 1.83398 13.0767 2.67807 13.0767 3.81189C13.0767 4.94977 12.331 5.7898 11.5044 5.7898C10.6734 5.7898 9.92768 4.94977 9.92768 3.81189C9.92768 2.67807 10.6734 1.83398 11.5044 1.83398ZM5.52982 1.83398C6.36088 1.83398 7.10209 2.67807 7.10209 3.81189C7.10209 4.94977 6.36088 5.7898 5.52982 5.7898C4.69877 5.7898 3.95352 4.94977 3.95352 3.81189C3.95352 2.67807 4.69877 1.83398 5.52982 1.83398ZM11.5044 6.73316C14.3794 6.82301 16.8052 6.82301 19.7162 6.92184C21.1042 7.72145 21.7466 11.8183 21.7062 13.2423L20.9156 14.0375C20.5697 12.1148 20.1339 9.54977 19.4107 8.97926V12.9144L19.5949 21.1666H18.5976L17.8474 12.8695H17.0388L16.2886 21.1666H15.2869L15.4755 12.9144L15.1162 8.93883H13.7999L13.4765 12.9009L13.6652 21.1531H12.6634L11.9087 12.856H11.1001L10.3454 21.1531H9.34818L9.53685 12.9009L9.20893 8.93883H7.89271L7.53334 12.9144L7.72201 21.1666H6.72025L5.97006 12.8695H5.16146L4.40273 21.1666H3.40547L3.59414 12.9144V8.97926C2.86641 9.54977 2.43066 12.1148 2.08477 14.0375L1.29414 13.2423C1.25371 11.8183 1.90059 7.72145 3.28418 6.92184C6.20365 6.82301 8.62943 6.82301 11.5044 6.73316Z" fill="black"/>
</svg>
